<svg xmlns="http://www.w3.org/2000/svg" xmlns:xlink="http://www.w3.org/1999/xlink" viewBox="0 0 167.34 216.2"><defs><style>.cls-1{fill:url(#Безымянный_градиент_32);}.cls-2{fill:url(#Безымянный_градиент_32-2);}.cls-3{fill:url(#Безымянный_градиент_32-3);}.cls-4{fill:url(#Безымянный_градиент_32-4);}.cls-5{fill:url(#Безымянный_градиент_32-5);}</style><linearGradient id="Безымянный_градиент_32" x1="33.2" y1="215.49" x2="33.2" y2="1.11" gradientUnits="userSpaceOnUse"><stop offset="0" stop-color="aqua"/><stop offset="1" stop-color="blue"/></linearGradient><linearGradient id="Безымянный_градиент_32-2" x1="102.15" y1="216.83" x2="102.15" y2="12.18" xlink:href="#Безымянный_градиент_32"/><linearGradient id="Безымянный_градиент_32-3" x1="115.74" y1="195.86" x2="115.74" y2="-1.23" xlink:href="#Безымянный_градиент_32"/><linearGradient id="Безымянный_градиент_32-4" x1="77.83" y1="215.27" x2="77.83" y2="60.49" xlink:href="#Безымянный_градиент_32"/><linearGradient id="Безымянный_градиент_32-5" x1="50.32" y1="214.39" x2="50.32" y2="178.05" xlink:href="#Безымянный_градиент_32"/></defs><title>Ресурс 2</title><g id="Слой_2" data-name="Слой 2"><g id="Слой_1-2" data-name="Слой 1"><path class="cls-1" d="M0,214.85C3.8,196.47,8.08,178.22,12.52,160c2.17-9.12,4.52-18.19,6.78-27.29l7-27.22,7.29-27.15c2.52-9,4.94-18.08,7.53-27.09l7.73-27,1-3.37.47-1.68.18-.7a.92.92,0,0,0,0-.17l0-.27c0-.18,0-.35.08-.52a6.35,6.35,0,0,1,2-3.49c.95-.81,1.83-1.5,2.75-2.25Q60.87,7.34,66.4,3q-5,5-10.08,9.82l-2.5,2.42a4.52,4.52,0,0,0-1.25,2.61c0,.12,0,.24,0,.36v.17a1.62,1.62,0,0,1,0,.26l-.17,1L52,21.38l-.73,3.45q-3,13.75-6.34,27.41c-2.14,9.13-4.48,18.2-6.73,27.3l-7,27.22-7.31,27.15c-2.52,9-5,18.07-7.59,27.07C11.12,179,5.8,197,0,214.85Z"/><path class="cls-2" d="M152.75,216.2c-6.31-20.07-12.14-40.26-17.82-60.5-2.89-10.1-5.6-20.25-8.4-30.38l-8.16-30.44-7.94-30.5-7.78-30.52-1-3.77a19.77,19.77,0,0,0-1.23-3.42,22.42,22.42,0,0,0-1.81-3.17c-.34-.5-.72-1-1.06-1.42a16.8,16.8,0,0,0-1.24-1.23,22.32,22.32,0,0,0-2.91-2.23,12.33,12.33,0,0,0-3.19-1.49A35.72,35.72,0,0,0,82.72,16c-2.57-.17-5.17-.19-7.77-.13s-5.21.24-7.81.48c-5.21.47-10.41,1.18-15.6,2.08A144,144,0,0,1,67,14.93,96.81,96.81,0,0,1,82.82,13.5a37.24,37.24,0,0,1,8.13.86A15.49,15.49,0,0,1,95,16a25.47,25.47,0,0,1,3.46,2.38,19.35,19.35,0,0,1,1.62,1.46,19.4,19.4,0,0,1,1.37,1.67,25.94,25.94,0,0,1,2.23,3.59A23.5,23.5,0,0,1,105.24,29l1.16,3.82c3,10.09,5.75,20.23,8.6,30.35l8.2,30.44,7.9,30.52c2.54,10.2,5.16,20.37,7.6,30.59C143.66,175.14,148.45,195.61,152.75,216.2Z"/><path class="cls-3" d="M167.34,195.27c-5.91-19.82-11.39-39.74-16.79-59.68-2.75-10-5.34-20-8-29.91l-8-29.93q-3.92-15-8-29.89c-2.7-9.93-5.43-19.93-8.65-29.57a35.51,35.51,0,0,0-1.34-3.37,10.42,10.42,0,0,0-.87-1.43q-.51-.73-1.08-1.42a24.11,24.11,0,0,0-2.5-2.59,17.55,17.55,0,0,0-2.82-2.1,19.32,19.32,0,0,0-6.76-2.31A68.07,68.07,0,0,0,95,2.5c-5.11-.14-10.25.06-15.39.37q-3.86.23-7.72.58c-2.57.21-5.15.45-7.72.74,5.06-1.07,10.16-2,15.29-2.7S89.73.26,94.95,0c1.31,0,2.62-.07,3.93,0s2.63.06,4,.2a22.41,22.41,0,0,1,7.95,2.27,19.15,19.15,0,0,1,3.5,2.35,27.64,27.64,0,0,1,3,2.86q.69.78,1.33,1.61a14.16,14.16,0,0,1,1.21,1.84,37.93,37.93,0,0,1,1.67,3.76c1.92,4.91,3.51,9.83,5.06,14.79s3,9.9,4.49,14.87c2.87,9.94,5.6,19.91,8.29,29.89s5.21,20,7.71,30,4.94,20.07,7.25,30.14C159,154.77,163.44,175,167.34,195.27Z"/><path class="cls-4" d="M78.92,76.15c-.41-2.05-.88-4.1-1.47-6.09A16.41,16.41,0,0,0,75,64.6a2.54,2.54,0,0,0-1-.73,1.15,1.15,0,0,0-.91,0,4.61,4.61,0,0,0-1.7,1.89,27.45,27.45,0,0,0-2.21,5.59,114.69,114.69,0,0,0-2.79,12.07c-.75,4.08-1.45,8.18-2.06,12.3-1.19,8.24-2.33,16.5-3.3,24.8L59.55,133l-.74,6.22-.37,3.11a6.25,6.25,0,0,0,0,2.23,1.25,1.25,0,0,0,.51.85,4.49,4.49,0,0,0,1.89.25l6.25-.09c4.24,0,8.47.06,12.71.38,1.08.09,2.07.16,3.24.29a14.08,14.08,0,0,1,3.62.92,11,11,0,0,1,1.74.9c.3.19.5.33.85.6s.5.43.73.65a13.73,13.73,0,0,1,2.31,2.93,10.16,10.16,0,0,1,.82,1.75c.23.6.35,1.1.53,1.65.28,1.06.57,2.1.79,3.14.47,2.08.86,4.15,1.25,6.22,1.55,8.28,2.73,16.57,3.83,24.88s2,16.63,2.72,25c-1.79-8.19-3.42-16.4-5.14-24.58s-3.38-16.38-5.23-24.48c-.48-2-1-4-1.5-6a23.35,23.35,0,0,0-1.83-5.31A9.34,9.34,0,0,0,87,152.58c-.15-.14-.31-.28-.45-.38s-.3-.21-.45-.29a6.47,6.47,0,0,0-1.06-.51,9.52,9.52,0,0,0-2.46-.53c-.91-.08-2-.13-3-.19-4.11-.2-8.24-.29-12.37-.22l-6.29.15a14,14,0,0,1-1.9-.1,6.79,6.79,0,0,1-2.33-.7,6.16,6.16,0,0,1-3-4.08,11,11,0,0,1-.1-4l.39-3.11.8-6.23c.55-4.15,1.07-8.31,1.68-12.46,1.25-8.29,2.49-16.59,4.15-24.83a162,162,0,0,1,6.37-24.5,29.35,29.35,0,0,1,2.9-5.84,6.11,6.11,0,0,1,2.73-2.41,2.72,2.72,0,0,1,2.13.12,4,4,0,0,1,1.41,1.28,11.22,11.22,0,0,1,1.36,3,28,28,0,0,1,.74,3.1C78.54,72,78.76,74.07,78.92,76.15Z"/><path class="cls-5" d="M50.7,178.65a106.21,106.21,0,0,1-.84,12.41c-.47,4.06-1,8.08-1.48,12-.11,1-.2,2-.25,2.9a21.38,21.38,0,0,0,0,2.71,6.06,6.06,0,0,0,.13,1c0,.26.15.32-.18.1a1.67,1.67,0,0,0-.26-.09h-.2l-.06,0h0s0,0,.08,0l.16,0,.22-.1a3.87,3.87,0,0,0,.5-.26,32.16,32.16,0,0,0,4.41-3.69c1.49-1.39,3-2.86,4.56-4.26a36.83,36.83,0,0,1-2.61,5.76,21.89,21.89,0,0,1-4,5.3,8,8,0,0,1-.77.61l-.44.3-.54.28a3.38,3.38,0,0,1-.65.23l-.36.09-.45,0h-.45l-.51-.09a3.08,3.08,0,0,1-1-.37A3.93,3.93,0,0,1,45,213a4.75,4.75,0,0,1-.52-.63,5.43,5.43,0,0,1-.59-1.17,9.93,9.93,0,0,1-.49-2,28,28,0,0,1,0-6.69A69.22,69.22,0,0,1,46,190.25,66,66,0,0,1,50.7,178.65Z"/></g></g></svg>